<svg xmlns="http://www.w3.org/2000/svg" viewBox="0 0 760 455" width="760" height="455" font-family="ui-sans-serif,system-ui,-apple-system,Segoe UI,Roboto,sans-serif"><text x="14" y="22" font-size="12.5" font-weight="700" fill="#8b8b9e">What arrives with the download</text><text x="14" y="37" font-size="10.5" fill="#8b8b9e">Filled: in the box. Hollow: one well-known package away. Empty: not something it sets out to do.</text><text x="241.0" y="61" font-size="10.5" text-anchor="middle" fill="#6D3BF5" font-weight="700">Voodoo.js</text><text x="331.0" y="61" font-size="10.5" text-anchor="middle" fill="#8b8b9e" font-weight="400">Alpine</text><text x="421.0" y="61" font-size="10.5" text-anchor="middle" fill="#8b8b9e" font-weight="400">Vue</text><text x="511.0" y="61" font-size="10.5" text-anchor="middle" fill="#8b8b9e" font-weight="400">React</text><text x="601.0" y="61" font-size="10.5" text-anchor="middle" fill="#8b8b9e" font-weight="400">Preact</text><text x="691.0" y="61" font-size="10.5" text-anchor="middle" fill="#8b8b9e" font-weight="400">Solid</text><line x1="14" y1="69" x2="746" y2="69" stroke="#e4e1ee" stroke-width="1"/><text x="182" y="89" font-size="10.5" text-anchor="end" fill="#8b8b9e">Reactive state</text><circle cx="241.0" cy="85" r="5.5" fill="#6D3BF5"/><circle cx="331.0" cy="85" r="5.5" fill="#b0abc2"/><circle cx="421.0" cy="85" r="5.5" fill="#b0abc2"/><circle cx="511.0" cy="85" r="5.5" fill="#b0abc2"/><circle cx="601.0" cy="85" r="5.5" fill="#b0abc2"/><circle cx="691.0" cy="85" r="5.5" fill="#b0abc2"/><text x="182" y="111" font-size="10.5" text-anchor="end" fill="#8b8b9e">Components</text><circle cx="241.0" cy="107" r="5.5" fill="#6D3BF5"/><circle cx="331.0" cy="107" r="5" fill="none" stroke="#b0abc2" stroke-width="1.6" opacity="0.8"/><circle cx="421.0" cy="107" r="5.5" fill="#b0abc2"/><circle cx="511.0" cy="107" r="5.5" fill="#b0abc2"/><circle cx="601.0" cy="107" r="5.5" fill="#b0abc2"/><circle cx="691.0" cy="107" r="5.5" fill="#b0abc2"/><text x="182" y="133" font-size="10.5" text-anchor="end" fill="#8b8b9e">Router</text><circle cx="241.0" cy="129" r="5.5" fill="#6D3BF5"/><circle cx="331.0" cy="129" r="5" fill="none" stroke="#b0abc2" stroke-width="1.6" opacity="0.8"/><circle cx="421.0" cy="129" r="5" fill="none" stroke="#b0abc2" stroke-width="1.6" opacity="0.8"/><circle cx="511.0" cy="129" r="5" fill="none" stroke="#b0abc2" stroke-width="1.6" opacity="0.8"/><circle cx="601.0" cy="129" r="5" fill="none" stroke="#b0abc2" stroke-width="1.6" opacity="0.8"/><circle cx="691.0" cy="129" r="5" fill="none" stroke="#b0abc2" stroke-width="1.6" opacity="0.8"/><text x="182" y="155" font-size="10.5" text-anchor="end" fill="#8b8b9e">HTTP client</text><circle cx="241.0" cy="151" r="5.5" fill="#6D3BF5"/><circle cx="331.0" cy="151" r="5" fill="none" stroke="#b0abc2" stroke-width="1.6" opacity="0.8"/><circle cx="421.0" cy="151" r="5" fill="none" stroke="#b0abc2" stroke-width="1.6" opacity="0.8"/><circle cx="511.0" cy="151" r="5" fill="none" stroke="#b0abc2" stroke-width="1.6" opacity="0.8"/><circle cx="601.0" cy="151" r="5" fill="none" stroke="#b0abc2" stroke-width="1.6" opacity="0.8"/><circle cx="691.0" cy="151" r="5" fill="none" stroke="#b0abc2" stroke-width="1.6" opacity="0.8"/><text x="182" y="177" font-size="10.5" text-anchor="end" fill="#8b8b9e">Forms + validation</text><circle cx="241.0" cy="173" r="5.5" fill="#6D3BF5"/><circle cx="331.0" cy="173" r="5" fill="none" stroke="#b0abc2" stroke-width="1.6" opacity="0.8"/><circle cx="421.0" cy="173" r="5" fill="none" stroke="#b0abc2" stroke-width="1.6" opacity="0.8"/><circle cx="511.0" cy="173" r="5" fill="none" stroke="#b0abc2" stroke-width="1.6" opacity="0.8"/><circle cx="601.0" cy="173" r="5" fill="none" stroke="#b0abc2" stroke-width="1.6" opacity="0.8"/><circle cx="691.0" cy="173" r="5" fill="none" stroke="#b0abc2" stroke-width="1.6" opacity="0.8"/><text x="182" y="199" font-size="10.5" text-anchor="end" fill="#8b8b9e">Input masks</text><circle cx="241.0" cy="195" r="5.5" fill="#6D3BF5"/><circle cx="331.0" cy="195" r="5" fill="none" stroke="#b0abc2" stroke-width="1.6" opacity="0.8"/><circle cx="421.0" cy="195" r="5" fill="none" stroke="#b0abc2" stroke-width="1.6" opacity="0.8"/><circle cx="511.0" cy="195" r="5" fill="none" stroke="#b0abc2" stroke-width="1.6" opacity="0.8"/><circle cx="601.0" cy="195" r="5" fill="none" stroke="#b0abc2" stroke-width="1.6" opacity="0.8"/><circle cx="691.0" cy="195" r="5" fill="none" stroke="#b0abc2" stroke-width="1.6" opacity="0.8"/><text x="182" y="221" font-size="10.5" text-anchor="end" fill="#8b8b9e">UI kit (toast, modal, tabs)</text><circle cx="241.0" cy="217" r="5.5" fill="#6D3BF5"/><circle cx="331.0" cy="217" r="5" fill="none" stroke="#b0abc2" stroke-width="1.6" opacity="0.8"/><circle cx="421.0" cy="217" r="5" fill="none" stroke="#b0abc2" stroke-width="1.6" opacity="0.8"/><circle cx="511.0" cy="217" r="5" fill="none" stroke="#b0abc2" stroke-width="1.6" opacity="0.8"/><circle cx="601.0" cy="217" r="5" fill="none" stroke="#b0abc2" stroke-width="1.6" opacity="0.8"/><circle cx="691.0" cy="217" r="5" fill="none" stroke="#b0abc2" stroke-width="1.6" opacity="0.8"/><text x="182" y="243" font-size="10.5" text-anchor="end" fill="#8b8b9e">Charts</text><circle cx="241.0" cy="239" r="5.5" fill="#6D3BF5"/><circle cx="331.0" cy="239" r="5" fill="none" stroke="#b0abc2" stroke-width="1.6" opacity="0.8"/><circle cx="421.0" cy="239" r="5" fill="none" stroke="#b0abc2" stroke-width="1.6" opacity="0.8"/><circle cx="511.0" cy="239" r="5" fill="none" stroke="#b0abc2" stroke-width="1.6" opacity="0.8"/><circle cx="601.0" cy="239" r="5" fill="none" stroke="#b0abc2" stroke-width="1.6" opacity="0.8"/><circle cx="691.0" cy="239" r="5" fill="none" stroke="#b0abc2" stroke-width="1.6" opacity="0.8"/><text x="182" y="265" font-size="10.5" text-anchor="end" fill="#8b8b9e">i18n</text><circle cx="241.0" cy="261" r="5.5" fill="#6D3BF5"/><circle cx="331.0" cy="261" r="5" fill="none" stroke="#b0abc2" stroke-width="1.6" opacity="0.8"/><circle cx="421.0" cy="261" r="5" fill="none" stroke="#b0abc2" stroke-width="1.6" opacity="0.8"/><circle cx="511.0" cy="261" r="5" fill="none" stroke="#b0abc2" stroke-width="1.6" opacity="0.8"/><circle cx="601.0" cy="261" r="5" fill="none" stroke="#b0abc2" stroke-width="1.6" opacity="0.8"/><circle cx="691.0" cy="261" r="5" fill="none" stroke="#b0abc2" stroke-width="1.6" opacity="0.8"/><text x="182" y="287" font-size="10.5" text-anchor="end" fill="#8b8b9e">Stores</text><circle cx="241.0" cy="283" r="5.5" fill="#6D3BF5"/><circle cx="331.0" cy="283" r="5" fill="none" stroke="#b0abc2" stroke-width="1.6" opacity="0.8"/><circle cx="421.0" cy="283" r="5" fill="none" stroke="#b0abc2" stroke-width="1.6" opacity="0.8"/><circle cx="511.0" cy="283" r="5" fill="none" stroke="#b0abc2" stroke-width="1.6" opacity="0.8"/><circle cx="601.0" cy="283" r="5" fill="none" stroke="#b0abc2" stroke-width="1.6" opacity="0.8"/><circle cx="691.0" cy="283" r="5" fill="none" stroke="#b0abc2" stroke-width="1.6" opacity="0.8"/><text x="182" y="309" font-size="10.5" text-anchor="end" fill="#8b8b9e">Animation / transitions</text><circle cx="241.0" cy="305" r="5.5" fill="#6D3BF5"/><circle cx="331.0" cy="305" r="5.5" fill="#b0abc2"/><circle cx="421.0" cy="305" r="5.5" fill="#b0abc2"/><circle cx="511.0" cy="305" r="5" fill="none" stroke="#b0abc2" stroke-width="1.6" opacity="0.8"/><circle cx="601.0" cy="305" r="5" fill="none" stroke="#b0abc2" stroke-width="1.6" opacity="0.8"/><circle cx="691.0" cy="305" r="5" fill="none" stroke="#b0abc2" stroke-width="1.6" opacity="0.8"/><text x="182" y="331" font-size="10.5" text-anchor="end" fill="#8b8b9e">Drag and drop</text><circle cx="241.0" cy="327" r="5.5" fill="#6D3BF5"/><circle cx="331.0" cy="327" r="5" fill="none" stroke="#b0abc2" stroke-width="1.6" opacity="0.8"/><circle cx="421.0" cy="327" r="5" fill="none" stroke="#b0abc2" stroke-width="1.6" opacity="0.8"/><circle cx="511.0" cy="327" r="5" fill="none" stroke="#b0abc2" stroke-width="1.6" opacity="0.8"/><circle cx="601.0" cy="327" r="5" fill="none" stroke="#b0abc2" stroke-width="1.6" opacity="0.8"/><circle cx="691.0" cy="327" r="5" fill="none" stroke="#b0abc2" stroke-width="1.6" opacity="0.8"/><text x="182" y="353" font-size="10.5" text-anchor="end" fill="#8b8b9e">WebSockets</text><circle cx="241.0" cy="349" r="5.5" fill="#6D3BF5"/><circle cx="331.0" cy="349" r="5" fill="none" stroke="#b0abc2" stroke-width="1.6" opacity="0.8"/><circle cx="421.0" cy="349" r="5" fill="none" stroke="#b0abc2" stroke-width="1.6" opacity="0.8"/><circle cx="511.0" cy="349" r="5" fill="none" stroke="#b0abc2" stroke-width="1.6" opacity="0.8"/><circle cx="601.0" cy="349" r="5" fill="none" stroke="#b0abc2" stroke-width="1.6" opacity="0.8"/><circle cx="691.0" cy="349" r="5" fill="none" stroke="#b0abc2" stroke-width="1.6" opacity="0.8"/><text x="182" y="375" font-size="10.5" text-anchor="end" fill="#8b8b9e">JSX with no build step</text><circle cx="241.0" cy="371" r="5.5" fill="#6D3BF5"/><line x1="327.0" y1="371" x2="335.0" y2="371" stroke="#e4e1ee" stroke-width="2" stroke-linecap="round"/><line x1="417.0" y1="371" x2="425.0" y2="371" stroke="#e4e1ee" stroke-width="2" stroke-linecap="round"/><line x1="507.0" y1="371" x2="515.0" y2="371" stroke="#e4e1ee" stroke-width="2" stroke-linecap="round"/><line x1="597.0" y1="371" x2="605.0" y2="371" stroke="#e4e1ee" stroke-width="2" stroke-linecap="round"/><line x1="687.0" y1="371" x2="695.0" y2="371" stroke="#e4e1ee" stroke-width="2" stroke-linecap="round"/><text x="182" y="397" font-size="10.5" text-anchor="end" fill="#8b8b9e">Runs from a CDN tag</text><circle cx="241.0" cy="393" r="5.5" fill="#6D3BF5"/><circle cx="331.0" cy="393" r="5.5" fill="#b0abc2"/><circle cx="421.0" cy="393" r="5.5" fill="#b0abc2"/><circle cx="511.0" cy="393" r="5.5" fill="#b0abc2"/><circle cx="601.0" cy="393" r="5.5" fill="#b0abc2"/><circle cx="691.0" cy="393" r="5.5" fill="#b0abc2"/><text x="182" y="419" font-size="10.5" text-anchor="end" fill="#8b8b9e">Server-side rendering</text><line x1="237.0" y1="415" x2="245.0" y2="415" stroke="#e4e1ee" stroke-width="2" stroke-linecap="round"/><line x1="327.0" y1="415" x2="335.0" y2="415" stroke="#e4e1ee" stroke-width="2" stroke-linecap="round"/><circle cx="421.0" cy="415" r="5.5" fill="#b0abc2"/><circle cx="511.0" cy="415" r="5.5" fill="#b0abc2"/><circle cx="601.0" cy="415" r="5.5" fill="#b0abc2"/><circle cx="691.0" cy="415" r="5.5" fill="#b0abc2"/><text x="14" y="445" font-size="9.5" fill="#8b8b9e" opacity="0.85">Read together with the size chart, not instead of it. More in the box is more to download, and a team that wants a renderer and nothing else is right to pick a renderer.</text></svg>