<svg xmlns="http://www.w3.org/2000/svg" viewBox="0 0 760 373" width="760" height="373" font-family="ui-sans-serif,system-ui,-apple-system,Segoe UI,Roboto,sans-serif"><text x="14" y="22" font-size="12.5" font-weight="700" fill="#8b8b9e">Bundle size — production, minified, one file each</text><text x="14" y="37" font-size="10.5" fill="#8b8b9e">Every framework bundled the same way rather than quoted from its own README. Voodoo's gzip and brotli in brackets.</text><text x="142" y="69" font-size="10.5" text-anchor="end" fill="#8b8b9e" font-weight="400">vanilla JS</text><rect x="150" y="59" width="1.5" height="13" rx="2.5" fill="#b0abc2"/><text x="159.5" y="69" font-size="10.5" fill="#8b8b9e" font-weight="400">0.6 KB</text><text x="142" y="103" font-size="10.5" text-anchor="end" fill="#8b8b9e" font-weight="400">Preact 10.29.8</text><rect x="150" y="93" width="9.1" height="13" rx="2.5" fill="#b0abc2"/><text x="167.1" y="103" font-size="10.5" fill="#8b8b9e" font-weight="400">10.7 KB</text><text x="142" y="137" font-size="10.5" text-anchor="end" fill="#8b8b9e" font-weight="400">Solid 1.9.15</text><rect x="150" y="127" width="14.2" height="13" rx="2.5" fill="#b0abc2"/><text x="172.2" y="137" font-size="10.5" fill="#8b8b9e" font-weight="400">16.7 KB</text><text x="142" y="171" font-size="10.5" text-anchor="end" fill="#8b8b9e" font-weight="400">Alpine 3.17.1</text><rect x="150" y="161" width="46.8" height="13" rx="2.5" fill="#b0abc2"/><text x="204.8" y="171" font-size="10.5" fill="#8b8b9e" font-weight="400">55.2 KB</text><text x="142" y="205" font-size="10.5" text-anchor="end" fill="#8b8b9e" font-weight="400">Vue 3.5.42</text><rect x="150" y="195" width="53.0" height="13" rx="2.5" fill="#b0abc2"/><text x="211.0" y="205" font-size="10.5" fill="#8b8b9e" font-weight="400">62.5 KB</text><text x="142" y="239" font-size="10.5" text-anchor="end" fill="#8b8b9e" font-weight="700">Voodoo core</text><rect x="150" y="229" width="124.6" height="13" rx="2.5" fill="#9B7BF7"/><text x="282.6" y="239" font-size="10.5" fill="#8b8b9e" font-weight="700">146.9 KB <tspan fill="#8b8b9e" font-weight="400">(50.7 gzip · 44.1 br)</tspan></text><text x="142" y="251" font-size="9" text-anchor="end" fill="#8b8b9e" opacity="0.75">directives, reactivity, components</text><text x="142" y="273" font-size="10.5" text-anchor="end" fill="#8b8b9e" font-weight="400">React 19.2.8</text><rect x="150" y="263" width="160.6" height="13" rx="2.5" fill="#b0abc2"/><text x="318.6" y="273" font-size="10.5" fill="#8b8b9e" font-weight="400">189.3 KB</text><text x="142" y="307" font-size="10.5" text-anchor="end" fill="#8b8b9e" font-weight="700">Voodoo</text><rect x="150" y="297" width="229.6" height="13" rx="2.5" fill="#9B7BF7"/><text x="387.6" y="307" font-size="10.5" fill="#8b8b9e" font-weight="700">270.7 KB <tspan fill="#8b8b9e" font-weight="400">(87.8 gzip · 74.2 br)</tspan></text><text x="142" y="319" font-size="9" text-anchor="end" fill="#8b8b9e" opacity="0.75">core + http, forms, router, UI</text><text x="142" y="341" font-size="10.5" text-anchor="end" fill="#8b8b9e" font-weight="700">Voodoo full</text><rect x="150" y="331" width="380.0" height="13" rx="2.5" fill="#6D3BF5"/><text x="538.0" y="341" font-size="10.5" fill="#8b8b9e" font-weight="700">447.9 KB <tspan fill="#8b8b9e" font-weight="400">(136.3 gzip · 113.3 br)</tspan></text><text x="142" y="353" font-size="9" text-anchor="end" fill="#8b8b9e" opacity="0.75">everything, including JSX in HTML</text></svg>