<svg xmlns="http://www.w3.org/2000/svg" viewBox="0 0 760 787" width="760" height="787" font-family="ui-sans-serif,system-ui,-apple-system,Segoe UI,Roboto,sans-serif"><text x="14" y="22" font-size="12.5" font-weight="700" fill="#8b8b9e">Time for one edit — bars scaled per row to the old cost</text><text x="14" y="37" font-size="10.5" fill="#8b8b9e">median of 100+ samples, jsdom, v24.16.0 — lower is better. Grey: before. Purple: after.</text><text x="200" y="70" font-size="10.5" text-anchor="end" fill="#8b8b9e">create 1000</text><rect x="208" y="57" width="289.9" height="9" rx="2" fill="#b0abc2"/><rect x="208" y="68" width="300.0" height="9" rx="2" fill="#6D3BF5"/><text x="516.0" y="65" font-size="10" fill="#8b8b9e">81.5 ms</text><text x="516.0" y="76" font-size="10" font-weight="700" fill="#6D3BF5">84.4 ms  </text><text x="200" y="100" font-size="10.5" text-anchor="end" fill="#8b8b9e">create 10000</text><rect x="208" y="87" width="299.9" height="9" rx="2" fill="#b0abc2"/><rect x="208" y="98" width="300.0" height="9" rx="2" fill="#6D3BF5"/><text x="516.0" y="95" font-size="10" fill="#8b8b9e">809 ms</text><text x="516.0" y="106" font-size="10" font-weight="700" fill="#6D3BF5">809 ms  </text><text x="200" y="130" font-size="10.5" text-anchor="end" fill="#8b8b9e">create 50000</text><rect x="208" y="117" width="300.0" height="9" rx="2" fill="#b0abc2"/><rect x="208" y="128" width="284.5" height="9" rx="2" fill="#6D3BF5"/><text x="516.0" y="125" font-size="10" fill="#8b8b9e">4049 ms</text><text x="516.0" y="136" font-size="10" font-weight="700" fill="#6D3BF5">3840 ms  </text><text x="200" y="160" font-size="10.5" text-anchor="end" fill="#8b8b9e">append 1 → 10k  (replace)</text><rect x="208" y="147" width="300.0" height="9" rx="2" fill="#b0abc2"/><rect x="208" y="158" width="84.8" height="9" rx="2" fill="#6D3BF5"/><text x="516.0" y="155" font-size="10" fill="#8b8b9e">40.9 ms</text><text x="516.0" y="166" font-size="10" font-weight="700" fill="#6D3BF5">11.6 ms  · 3.5x</text><text x="200" y="190" font-size="10.5" text-anchor="end" fill="#8b8b9e">push 1 → 10k  (inplace)</text><rect x="208" y="177" width="300.0" height="9" rx="2" fill="#b0abc2"/><rect x="208" y="188" width="17.0" height="9" rx="2" fill="#6D3BF5"/><text x="516.0" y="185" font-size="10" fill="#8b8b9e">34.2 ms</text><text x="516.0" y="196" font-size="10" font-weight="700" fill="#6D3BF5">1.94 ms  · 17.6x</text><text x="200" y="220" font-size="10.5" text-anchor="end" fill="#8b8b9e">append 5000 to 5000  (replace)</text><rect x="208" y="207" width="300.0" height="9" rx="2" fill="#b0abc2"/><rect x="208" y="218" width="267.2" height="9" rx="2" fill="#6D3BF5"/><text x="516.0" y="215" font-size="10" fill="#8b8b9e">470 ms</text><text x="516.0" y="226" font-size="10" font-weight="700" fill="#6D3BF5">418 ms  </text><text x="200" y="250" font-size="10.5" text-anchor="end" fill="#8b8b9e">prepend 1 → 10k  (replace)</text><rect x="208" y="237" width="300.0" height="9" rx="2" fill="#b0abc2"/><rect x="208" y="248" width="65.2" height="9" rx="2" fill="#6D3BF5"/><text x="516.0" y="245" font-size="10" fill="#8b8b9e">38.6 ms</text><text x="516.0" y="256" font-size="10" font-weight="700" fill="#6D3BF5">8.40 ms  · 4.6x</text><text x="200" y="280" font-size="10.5" text-anchor="end" fill="#8b8b9e">unshift 1 → 10k  (inplace)</text><rect x="208" y="267" width="300.0" height="9" rx="2" fill="#b0abc2"/><rect x="208" y="278" width="1.6" height="9" rx="2" fill="#6D3BF5"/><text x="516.0" y="275" font-size="10" fill="#8b8b9e">56.0 ms</text><text x="516.0" y="286" font-size="10" font-weight="700" fill="#6D3BF5">0.297 ms  · 188.7x</text><text x="200" y="310" font-size="10.5" text-anchor="end" fill="#8b8b9e">prepend 5000 to 5000  (replace)</text><rect x="208" y="297" width="300.0" height="9" rx="2" fill="#b0abc2"/><rect x="208" y="308" width="233.3" height="9" rx="2" fill="#6D3BF5"/><text x="516.0" y="305" font-size="10" fill="#8b8b9e">530 ms</text><text x="516.0" y="316" font-size="10" font-weight="700" fill="#6D3BF5">412 ms  · 1.3x</text><text x="200" y="340" font-size="10.5" text-anchor="end" fill="#8b8b9e">remove first  (replace)</text><rect x="208" y="327" width="300.0" height="9" rx="2" fill="#b0abc2"/><rect x="208" y="338" width="68.0" height="9" rx="2" fill="#6D3BF5"/><text x="516.0" y="335" font-size="10" fill="#8b8b9e">40.9 ms</text><text x="516.0" y="346" font-size="10" font-weight="700" fill="#6D3BF5">9.28 ms  · 4.4x</text><text x="200" y="370" font-size="10.5" text-anchor="end" fill="#8b8b9e">remove middle  (replace)</text><rect x="208" y="357" width="300.0" height="9" rx="2" fill="#b0abc2"/><rect x="208" y="368" width="73.3" height="9" rx="2" fill="#6D3BF5"/><text x="516.0" y="365" font-size="10" fill="#8b8b9e">41.7 ms</text><text x="516.0" y="376" font-size="10" font-weight="700" fill="#6D3BF5">10.2 ms  · 4.1x</text><text x="200" y="400" font-size="10.5" text-anchor="end" fill="#8b8b9e">remove last  (replace)</text><rect x="208" y="387" width="300.0" height="9" rx="2" fill="#b0abc2"/><rect x="208" y="398" width="85.2" height="9" rx="2" fill="#6D3BF5"/><text x="516.0" y="395" font-size="10" fill="#8b8b9e">39.4 ms</text><text x="516.0" y="406" font-size="10" font-weight="700" fill="#6D3BF5">11.2 ms  · 3.5x</text><text x="200" y="430" font-size="10.5" text-anchor="end" fill="#8b8b9e">splice remove middle  (inplace)</text><rect x="208" y="417" width="300.0" height="9" rx="2" fill="#b0abc2"/><rect x="208" y="428" width="5.7" height="9" rx="2" fill="#6D3BF5"/><text x="516.0" y="425" font-size="10" fill="#8b8b9e">45.3 ms</text><text x="516.0" y="436" font-size="10" font-weight="700" fill="#6D3BF5">0.853 ms  · 53.1x</text><text x="200" y="460" font-size="10.5" text-anchor="end" fill="#8b8b9e">shift  (inplace)</text><rect x="208" y="447" width="300.0" height="9" rx="2" fill="#b0abc2"/><rect x="208" y="458" width="1.0" height="9" rx="2" fill="#6D3BF5"/><text x="516.0" y="455" font-size="10" fill="#8b8b9e">61.6 ms</text><text x="516.0" y="466" font-size="10" font-weight="700" fill="#6D3BF5">0.096 ms  · 641.1x</text><text x="200" y="490" font-size="10.5" text-anchor="end" fill="#8b8b9e">pop  (inplace)</text><rect x="208" y="477" width="300.0" height="9" rx="2" fill="#b0abc2"/><rect x="208" y="488" width="12.1" height="9" rx="2" fill="#6D3BF5"/><text x="516.0" y="485" font-size="10" fill="#8b8b9e">37.5 ms</text><text x="516.0" y="496" font-size="10" font-weight="700" fill="#6D3BF5">1.51 ms  · 24.8x</text><text x="200" y="520" font-size="10.5" text-anchor="end" fill="#8b8b9e">insert middle  (replace)</text><rect x="208" y="507" width="300.0" height="9" rx="2" fill="#b0abc2"/><rect x="208" y="518" width="75.9" height="9" rx="2" fill="#6D3BF5"/><text x="516.0" y="515" font-size="10" fill="#8b8b9e">42.5 ms</text><text x="516.0" y="526" font-size="10" font-weight="700" fill="#6D3BF5">10.7 ms  · 4.0x</text><text x="200" y="550" font-size="10.5" text-anchor="end" fill="#8b8b9e">splice insert middle  (inplace)</text><rect x="208" y="537" width="300.0" height="9" rx="2" fill="#b0abc2"/><rect x="208" y="548" width="4.2" height="9" rx="2" fill="#6D3BF5"/><text x="516.0" y="545" font-size="10" fill="#8b8b9e">48.6 ms</text><text x="516.0" y="556" font-size="10" font-weight="700" fill="#6D3BF5">0.684 ms  · 71.0x</text><text x="200" y="580" font-size="10.5" text-anchor="end" fill="#8b8b9e">replace 1  (replace)</text><rect x="208" y="567" width="300.0" height="9" rx="2" fill="#b0abc2"/><rect x="208" y="578" width="87.6" height="9" rx="2" fill="#6D3BF5"/><text x="516.0" y="575" font-size="10" fill="#8b8b9e">40.1 ms</text><text x="516.0" y="586" font-size="10" font-weight="700" fill="#6D3BF5">11.7 ms  · 3.4x</text><text x="200" y="610" font-size="10.5" text-anchor="end" fill="#8b8b9e">update label 1  (inplace)</text><rect x="208" y="597" width="300.0" height="9" rx="2" fill="#b0abc2"/><rect x="208" y="608" width="286.7" height="9" rx="2" fill="#6D3BF5"/><text x="516.0" y="605" font-size="10" fill="#8b8b9e">0.116 ms</text><text x="516.0" y="616" font-size="10" font-weight="700" fill="#6D3BF5">0.111 ms  </text><text x="200" y="640" font-size="10.5" text-anchor="end" fill="#8b8b9e">same rows new array 10k  (replace)</text><rect x="208" y="627" width="300.0" height="9" rx="2" fill="#b0abc2"/><rect x="208" y="638" width="54.8" height="9" rx="2" fill="#6D3BF5"/><text x="516.0" y="635" font-size="10" fill="#8b8b9e">52.4 ms</text><text x="516.0" y="646" font-size="10" font-weight="700" fill="#6D3BF5">9.57 ms  · 5.5x</text><text x="200" y="670" font-size="10.5" text-anchor="end" fill="#8b8b9e">swap 2  (replace)</text><rect x="208" y="657" width="300.0" height="9" rx="2" fill="#b0abc2"/><rect x="208" y="668" width="1.0" height="9" rx="2" fill="#6D3BF5"/><text x="516.0" y="665" font-size="10" fill="#8b8b9e">9585 ms</text><text x="516.0" y="676" font-size="10" font-weight="700" fill="#6D3BF5">16.6 ms  · 575.9x</text><text x="200" y="700" font-size="10.5" text-anchor="end" fill="#8b8b9e">reverse 10k  (replace)</text><rect x="208" y="687" width="289.8" height="9" rx="2" fill="#b0abc2"/><rect x="208" y="698" width="300.0" height="9" rx="2" fill="#6D3BF5"/><text x="516.0" y="695" font-size="10" fill="#8b8b9e">3989 ms</text><text x="516.0" y="706" font-size="10" font-weight="700" fill="#6D3BF5">4130 ms  </text><text x="200" y="730" font-size="10.5" text-anchor="end" fill="#8b8b9e">random reorder 10k  (replace)</text><rect x="208" y="717" width="300.0" height="9" rx="2" fill="#b0abc2"/><rect x="208" y="728" width="292.4" height="9" rx="2" fill="#6D3BF5"/><text x="516.0" y="725" font-size="10" fill="#8b8b9e">7890 ms</text><text x="516.0" y="736" font-size="10" font-weight="700" fill="#6D3BF5">7690 ms  </text><text x="200" y="760" font-size="10.5" text-anchor="end" fill="#8b8b9e">clear 10k  (replace)</text><rect x="208" y="747" width="300.0" height="9" rx="2" fill="#b0abc2"/><rect x="208" y="758" width="278.6" height="9" rx="2" fill="#6D3BF5"/><text x="516.0" y="755" font-size="10" fill="#8b8b9e">144 ms</text><text x="516.0" y="766" font-size="10" font-weight="700" fill="#6D3BF5">134 ms  </text></svg>